<svg xmlns="http://www.w3.org/2000/svg" viewBox="0 0 1600 1000" fill="none">
  <rect width="1600" height="1000" fill="#0B1020"/>
  <rect width="1600" height="56" fill="#111827"/>
  <circle cx="28" cy="28" r="7" fill="#F87171"/>
  <circle cx="52" cy="28" r="7" fill="#FBBF24"/>
  <circle cx="76" cy="28" r="7" fill="#34D399"/>
  <text x="110" y="34" fill="#9CA3AF" font-family="Arial" font-size="16">Aegis Dashboard</text>
  <rect x="24" y="80" width="200" height="896" rx="12" fill="#111827"/>
  <rect x="44" y="112" width="160" height="18" rx="4" fill="#194BFD"/>
  <rect x="44" y="150" width="132" height="12" rx="3" fill="#374151"/>
  <rect x="44" y="178" width="148" height="12" rx="3" fill="#374151"/>
  <rect x="44" y="206" width="120" height="12" rx="3" fill="#374151"/>
  <rect x="248" y="80" width="420" height="180" rx="16" fill="#111827" stroke="#1F2937"/>
  <text x="276" y="128" fill="#6B7280" font-family="Arial" font-size="18">Threats blocked</text>
  <text x="276" y="188" fill="#FFFFFF" font-family="Arial" font-size="48" font-weight="700">12.4k</text>
  <rect x="688" y="80" width="420" height="180" rx="16" fill="#111827" stroke="#1F2937"/>
  <text x="716" y="128" fill="#6B7280" font-family="Arial" font-size="18">Live latency</text>
  <text x="716" y="188" fill="#34D399" font-family="Arial" font-size="48" font-weight="700">48ms</text>
  <rect x="1128" y="80" width="448" height="180" rx="16" fill="#111827" stroke="#1F2937"/>
  <text x="1156" y="128" fill="#6B7280" font-family="Arial" font-size="18">SOC status</text>
  <text x="1156" y="188" fill="#194BFD" font-family="Arial" font-size="48" font-weight="700">Nominal</text>
  <rect x="248" y="284" width="1328" height="420" rx="16" fill="#111827"/>
  <polyline points="280,620 420,540 560,570 720,430 880,480 1040,360 1200,410 1360,300 1520,340" stroke="#194BFD" stroke-width="4" fill="none"/>
  <polyline points="280,680 460,650 640,670 820,590 1000,610 1180,540 1360,560 1520,500" stroke="#AD13FB" stroke-width="4" fill="none"/>
  <rect x="248" y="724" width="1328" height="252" rx="16" fill="#0F172A"/>
  <text x="276" y="772" fill="#6B7280" font-family="Consolas" font-size="16">[12:04:18] inbound scan dropped</text>
  <text x="276" y="808" fill="#6B7280" font-family="Consolas" font-size="16">[12:04:21] rule 204 matched</text>
  <text x="276" y="844" fill="#34D399" font-family="Consolas" font-size="16">[12:04:26] traffic normalised</text>
</svg>
